<svg width="695" height="633" viewBox="0 0 695 633" fill="none" xmlns="http://www.w3.org/2000/svg">
<path d="M551.315 250.052H349.991L450.369 0L143.685 382.948H345.009L244.631 633L551.315 250.052Z" fill="#E5E5E5"/>
<g clip-path="url(#clip0)">
<path d="M395.439 539.514V552.483C395.439 553.623 395.378 554.762 395.256 555.871C393.567 571.129 380.628 583 364.922 583H318.13C302.424 583 289.485 571.129 287.797 555.871C287.675 554.762 287.614 553.623 287.614 552.483V539.514C291.652 541.314 296.128 542.311 300.838 542.311H382.215C386.925 542.311 391.401 541.314 395.439 539.514Z" fill="#50758D"/>
<path d="M340.001 137.692C335.786 137.692 332.371 134.277 332.371 130.063V78.6291C332.371 74.4148 335.786 71 340.001 71C344.215 71 347.63 74.4148 347.63 78.6291V130.063C347.63 134.277 344.214 137.692 340.001 137.692Z" fill="#FFE7C9"/>
<path d="M203.056 194.417C201.103 194.417 199.151 193.673 197.661 192.183L161.291 155.813C158.312 152.832 158.312 148.002 161.291 145.023C164.273 142.044 169.103 142.046 172.081 145.023L208.451 181.394C211.43 184.374 211.43 189.204 208.451 192.183C206.96 193.673 205.007 194.417 203.056 194.417Z" fill="#FFE7C9"/>
<path d="M146.332 331.36H94.8975C90.6831 331.36 87.2683 327.945 87.2683 323.731C87.2683 319.517 90.6831 316.102 94.8975 316.102H146.331C150.545 316.102 153.96 319.517 153.96 323.731C153.96 327.945 150.545 331.36 146.332 331.36Z" fill="#FFE7C9"/>
<path d="M166.687 504.674C164.735 504.674 162.782 503.929 161.291 502.44C158.312 499.46 158.312 494.63 161.291 491.651L197.661 455.281C200.641 452.303 205.471 452.303 208.451 455.281C211.43 458.261 211.43 463.091 208.451 466.071L172.081 502.44C170.591 503.929 168.639 504.674 166.687 504.674Z" fill="#FFE7C9"/>
<path d="M513.313 504.674C511.361 504.674 509.408 503.929 507.918 502.44L471.548 466.071C468.569 463.09 468.569 458.26 471.548 455.281C474.529 452.303 479.359 452.303 482.338 455.281L518.708 491.651C521.687 494.631 521.687 499.461 518.708 502.44C517.218 503.929 515.265 504.674 513.313 504.674Z" fill="#FFE7C9"/>
<path d="M585.103 331.36H533.669C529.455 331.36 526.04 327.945 526.04 323.731C526.04 319.517 529.455 316.102 533.669 316.102H585.103C589.317 316.102 592.732 319.517 592.732 323.731C592.732 327.945 589.316 331.36 585.103 331.36Z" fill="#FFE7C9"/>
<path d="M476.944 194.417C474.992 194.417 473.039 193.673 471.548 192.183C468.569 189.203 468.569 184.373 471.548 181.394L507.918 145.023C510.898 142.045 515.728 142.045 518.708 145.023C521.687 148.003 521.687 152.833 518.708 155.813L482.338 192.183C480.849 193.673 478.896 194.417 476.944 194.417Z" fill="#FFE7C9"/>
<path d="M341.526 532.139C341.526 532.139 291.652 541.314 287.614 539.514V552.483C287.614 553.623 287.675 554.762 287.797 555.871C289.485 571.129 302.424 583 318.13 583H331.354C318.085 583 306.792 574.526 302.589 562.695C301.878 560.694 303.335 558.587 305.458 558.587H382.215C386.854 558.587 391.268 557.62 395.256 555.871C395.378 554.762 395.439 553.623 395.439 552.483V539.514C391.401 541.314 341.526 532.139 341.526 532.139Z" fill="#2B597F"/>
<path d="M414.766 509.76C414.766 523.025 406.822 534.448 395.439 539.514C391.401 541.314 386.925 542.311 382.215 542.311H300.838C296.128 542.311 291.652 541.314 287.614 539.514C276.231 534.448 268.287 523.025 268.287 509.76C268.287 509.76 267.808 462.215 267.717 460.974V460.934L341.526 450.762L414.491 460.934L414.766 509.76Z" fill="#50758D"/>
<path d="M318.13 542.311H300.838C296.128 542.311 291.652 541.314 287.614 539.514C276.231 534.448 268.287 523.025 268.287 509.76C268.287 509.76 267.808 462.215 267.717 460.974V460.934H285.01V460.974C285.101 462.215 285.579 509.76 285.579 509.76C285.579 523.025 293.524 534.448 304.906 539.514C308.944 541.314 313.42 542.311 318.13 542.311Z" fill="#2B597F"/>
<path d="M414.766 509.252H388.827C384.616 509.252 381.198 505.834 381.198 501.622C381.198 497.411 384.616 493.993 388.827 493.993H414.685L414.725 501.622L414.766 509.252Z" fill="#2B597F"/>
<path d="M360.853 501.622C360.853 505.834 357.436 509.252 353.224 509.252H268.276L268.103 493.993H353.224C357.436 493.993 360.853 497.411 360.853 501.622Z" fill="#2B597F"/>
<path d="M340.133 163.061C340.132 163.061 340.131 163.061 340.13 163.061L340.133 163.058C261.572 161.85 195.506 230.321 196.918 308.31C196.918 348.094 212.675 384.154 238.207 410.388C253.252 425.86 266.272 440.162 267.717 460.934L414.491 461.178C415.315 439.796 427.471 425.351 442.618 409.534C467.662 383.381 483.083 347.676 483.083 308.31C483.082 228.133 419.099 163.133 340.133 163.061Z" fill="#FAD207"/>
<path d="M414.49 461.147V461.178L267.716 460.934C266.271 440.162 253.251 425.86 238.206 410.388C212.674 384.154 196.917 348.094 196.917 308.31C195.504 230.32 261.572 161.851 340.132 163.061C342.665 163.061 345.187 163.133 347.69 163.265C273.484 167.568 212.857 233.565 214.21 308.31C214.21 348.094 229.967 384.154 255.499 410.388C270.544 425.86 283.564 440.162 285.009 460.934L414.49 461.147Z" fill="#FAA515"/>
<path d="M343.592 381.012C340.548 384.933 335.923 387.306 330.963 387.49C330.753 387.499 330.543 387.503 330.335 387.503C325.6 387.503 321.073 385.5 317.884 381.972L270.075 329.078C263.86 322.2 264.396 311.588 271.273 305.371C278.15 299.155 288.761 299.691 294.979 306.569L329.361 344.608L384.217 273.961C389.901 266.64 400.446 265.312 407.767 270.998C415.089 276.683 416.415 287.227 410.73 294.548L343.592 381.012Z" fill="#FAA515"/>
</g>
<defs>
<clipPath id="clip0">
<rect width="512" height="512" fill="white" transform="translate(84 71)"/>
</clipPath>
</defs>
</svg>

